# xmcd
#
# Track frame offsets:
#	150
#	12017
#	28697
#	37237
#	51005
#	64927
#	77345
#	93450
#	104315
#	112975
#
# Disc length: 1758 seconds
#
# Revision: 2
# Processed by: cddbd v1.4b42PL0 Copyright (c) Steve Scherf et al.
# Submitted via: EZCDDA 4.3.2
#
DISCID=7506dc0a
DTITLE=Paul Dwayne - Mon Petit Chenou
DYEAR=1900
DGENRE=
TTITLE0=Loin De Ma Mere
TTITLE1=Les Beaux Jours Passer
TTITLE2=Honneur A L'acadie
TTITLE3=Adieu Ma Cherie
TTITLE4=Toune Des Cloggers
TTITLE5=Mon Petit Chenou
TTITLE6=Depart Sans Adieu
TTITLE7=Le Paradis C'est L'acadie
TTITLE8=Louise
TTITLE9=Tragedie De Ste-Anne
EXTD=
EXTT0=
EXTT1=
EXTT2=
EXTT3=
EXTT4=
EXTT5=
EXTT6=
EXTT7=
EXTT8=
EXTT9=
PLAYORDER=
